<svg width="1320" height="888" viewBox="0 0 1320 888" fill="none" xmlns="http://www.w3.org/2000/svg">
    <g clip-path="url(#clip0_272_364)">
        <path
            d="M686 349C689.238 351.361 692.438 353.77 695.628 356.195C700.475 359.879 705.389 363.445 710.375 366.937C716.285 371.079 722.158 375.264 728 379.5C733.806 383.707 739.635 387.876 745.5 392C753.628 397.718 761.687 403.528 769.734 409.359C773.487 412.076 777.244 414.788 781 417.5C785.514 420.759 790.027 424.019 794.535 427.285C801.828 432.566 809.136 437.82 816.5 443C824.628 448.718 832.687 454.528 840.734 460.359C843.739 462.535 846.747 464.707 849.755 466.879C851.246 467.956 852.737 469.033 854.228 470.112C858.094 472.907 861.967 475.692 865.852 478.461C867.051 479.318 867.051 479.318 868.274 480.193C869.784 481.274 871.297 482.351 872.813 483.424C891.275 496.653 901.995 512.321 906.537 534.639C907.104 538.754 907.125 542.751 907.098 546.898C907.096 547.733 907.095 548.568 907.094 549.429C907.088 552.077 907.075 554.726 907.063 557.375C907.058 559.178 907.053 560.982 907.049 562.785C907.038 567.19 907.021 571.595 907 576C924.334 576.033 941.667 576.026 959 575.972C967.049 575.947 975.097 575.936 983.146 575.955C990.163 575.972 997.18 575.965 1004.2 575.928C1007.91 575.909 1011.62 575.902 1015.34 575.925C1019.49 575.95 1023.64 575.921 1027.79 575.886C1029.63 575.91 1029.63 575.91 1031.5 575.934C1038.5 575.824 1042.43 574.945 1047.37 569.853C1047.91 569.241 1048.45 568.63 1049 568C1050.16 566.794 1051.33 565.59 1052.49 564.387C1053.62 563.157 1054.75 561.924 1055.88 560.687C1059.98 556.223 1064.12 551.823 1068.44 547.562C1071.16 544.873 1073.77 542.169 1076.25 539.25C1079.63 535.29 1083.3 531.659 1087 528C1091.21 523.834 1095.27 519.647 1099.1 515.121C1101.78 512.129 1104.64 509.326 1107.5 506.5C1112.6 501.461 1112.6 501.461 1117.38 496.125C1121.45 491.312 1126 486.953 1130.5 482.541C1134.56 478.529 1138.34 474.386 1142 470C1141.73 469.361 1141.46 468.721 1141.19 468.062C1140.6 466.547 1140.6 466.547 1140 465C1139.62 464.035 1139.62 464.035 1139.23 463.051C1135.02 451.55 1134.99 440.096 1140.13 428.875C1146.11 417.985 1153.66 412.552 1165 408C1175.1 405.327 1186.19 406.299 1195.37 411.289C1205.1 417.424 1211.5 424.86 1215.31 435.75C1217.59 446.929 1216.39 458.755 1210.42 468.605C1203.16 478.37 1194.52 484.645 1182.43 486.684C1174.33 487.738 1167.8 486.152 1160 484C1158.67 483.663 1157.34 483.327 1156 483C1155.25 483.822 1154.5 484.645 1153.73 485.492C1148.02 491.724 1142.23 497.816 1136.22 503.754C1134.3 505.695 1132.51 507.672 1130.75 509.75C1127.37 513.71 1123.7 517.341 1120 521C1115.79 525.166 1111.73 529.353 1107.9 533.879C1104.67 537.478 1101.19 540.827 1097.76 544.225C1094.91 547.048 1092.15 549.876 1089.56 552.937C1086.25 556.843 1082.64 560.403 1079 564C1073.59 569.345 1073.59 569.345 1068.5 575C1065.11 578.998 1061.44 582.712 1057.75 586.437C1056.83 587.38 1056.83 587.38 1055.89 588.342C1055.3 588.929 1054.71 589.516 1054.11 590.121C1053.58 590.651 1053.06 591.182 1052.51 591.728C1049.39 594.35 1046.17 594.124 1042.29 594.12C1041.1 594.122 1039.91 594.123 1038.68 594.124C1037.37 594.121 1036.06 594.117 1034.72 594.114C1033.33 594.113 1031.94 594.113 1030.55 594.114C1026.77 594.114 1023 594.108 1019.22 594.101C1015.28 594.095 1011.34 594.095 1007.39 594.093C999.923 594.09 992.454 594.082 984.985 594.072C976.482 594.061 967.979 594.055 959.476 594.05C941.984 594.04 924.492 594.022 907 594C907 611.16 907 628.32 907 646C1071.84 645.505 1071.84 645.505 1240 645C1242.31 640.38 1244.62 635.76 1247 631C1254.6 622.074 1263.69 615.895 1275.64 614.746C1287.85 614.251 1298.84 617.838 1308 626C1315.86 634.127 1319.48 643.454 1320.25 654.625C1320 666.786 1315.04 677.459 1306.31 685.875C1297.17 693.302 1285.54 696.031 1274 695C1261.55 692.439 1252.26 686.513 1245 676C1243.35 672.37 1241.7 668.74 1240 665C1130.11 664.67 1020.22 664.34 907 664C907 681.16 907 698.32 907 716C911.816 715.984 916.631 715.969 921.592 715.952C937.486 715.903 953.38 715.869 969.274 715.845C978.912 715.829 988.55 715.808 998.188 715.774C1006.59 715.744 1014.99 715.724 1023.39 715.718C1027.84 715.714 1032.29 715.705 1036.73 715.683C1040.92 715.662 1045.11 715.656 1049.3 715.661C1050.83 715.66 1052.37 715.654 1053.9 715.642C1056.01 715.627 1058.1 715.631 1060.2 715.639C1061.38 715.636 1062.55 715.634 1063.76 715.631C1068.92 716.218 1072.8 718.414 1076.42 722.059C1077.01 722.654 1077.61 723.249 1078.23 723.861C1078.85 724.499 1079.48 725.136 1080.12 725.793C1080.78 726.458 1081.45 727.123 1082.13 727.808C1083.53 729.212 1084.92 730.62 1086.31 732.031C1088.42 734.17 1090.54 736.298 1092.66 738.424C1094.02 739.796 1095.38 741.169 1096.75 742.543C1097.37 743.17 1097.99 743.798 1098.63 744.444C1101.59 747.449 1104.46 750.494 1107.22 753.686C1114.96 762.626 1123.28 771.074 1131.53 779.544C1134.58 782.679 1137.61 785.83 1140.61 789.022C1143.53 792.132 1146.49 795.195 1149.48 798.23C1150.61 799.387 1151.72 800.559 1152.81 801.746C1156.27 805.49 1159.45 808.629 1164 811C1168.38 811.004 1171.38 810.349 1175.55 809.038C1183.14 806.756 1190.93 808.256 1197.92 811.781C1207.94 817.648 1216.36 825.744 1220 837C1222.86 849.137 1220.22 860.532 1214.31 871.375C1208.91 879.736 1200.29 885.146 1190.71 887.582C1178.52 889.461 1167.11 888.411 1156.75 881.312C1148.93 874.934 1142.92 866.003 1141 856C1140.25 845.7 1140.72 836.208 1146.76 827.445C1147.17 826.638 1147.58 825.831 1148 825C1144.44 814.657 1130.81 804.685 1123.12 797.049C1121.21 795.15 1119.3 793.247 1117.39 791.344C1113.35 787.31 1109.3 783.279 1105.25 779.25C1100.54 774.559 1095.82 769.867 1091.11 765.171C1089.25 763.31 1087.38 761.452 1085.51 759.594C1080.3 754.407 1075.14 749.238 1070.38 743.619C1065.94 738.281 1065.94 738.281 1060 735C1057.95 734.897 1055.89 734.854 1053.83 734.842C1052.54 734.832 1051.25 734.822 1049.92 734.812C1048.48 734.806 1047.05 734.8 1045.61 734.795C1044.11 734.785 1042.6 734.775 1041.09 734.765C1036.99 734.738 1032.9 734.717 1028.8 734.697C1024.52 734.675 1020.24 734.647 1015.96 734.621C1007.85 734.571 999.747 734.526 991.641 734.483C982.412 734.433 973.184 734.378 963.955 734.323C944.97 734.209 925.985 734.102 907 734C907.009 735.236 907.018 736.473 907.027 737.747C907.108 749.442 907.168 761.137 907.207 772.833C907.228 778.844 907.256 784.856 907.302 790.867C907.346 796.677 907.369 802.486 907.38 808.296C907.387 810.504 907.401 812.713 907.423 814.921C907.581 831.686 907.227 845.522 894.93 858.121C887.841 864.852 880.013 869.098 870.113 869.147C869.131 869.154 868.149 869.162 867.136 869.169C865.529 869.173 865.529 869.173 863.889 869.177C862.188 869.187 862.188 869.187 860.453 869.197C856.696 869.217 852.94 869.228 849.184 869.238C847.257 869.244 847.257 869.244 845.292 869.251C839.191 869.269 833.091 869.284 826.991 869.292C819.972 869.302 812.954 869.328 805.935 869.369C799.838 869.403 793.742 869.414 787.646 869.418C785.062 869.423 782.478 869.435 779.894 869.453C776.268 869.478 772.643 869.477 769.018 869.47C767.96 869.483 766.902 869.496 765.813 869.509C753.191 869.421 744.399 864.843 735.285 856.414C727.212 847.992 724.882 836.634 724.869 825.33C724.863 823.377 724.863 823.377 724.857 821.385C724.857 819.959 724.858 818.533 724.858 817.107C724.855 815.592 724.852 814.077 724.848 812.561C724.84 809.307 724.835 806.052 724.832 802.797C724.826 797.639 724.809 792.48 724.79 787.322C724.784 785.551 724.778 783.78 724.771 782.01C724.768 781.123 724.765 780.237 724.762 779.323C724.72 767.323 724.687 755.323 724.674 743.322C724.666 735.215 724.643 727.108 724.605 719.002C724.585 714.72 724.573 710.439 724.578 706.157C724.582 702.122 724.568 698.088 724.541 694.054C724.534 692.584 724.534 691.115 724.541 689.645C724.621 671.808 719.694 656.537 708 643C707.428 642.321 706.855 641.641 706.266 640.941C696.811 630.577 681.174 622.805 667.115 621.875C648.174 621.175 632.549 625.225 618 638C617.323 638.583 616.647 639.165 615.949 639.766C604.038 650.775 595.743 667.994 594.815 684.241C594.743 688.145 594.733 692.047 594.745 695.952C594.742 697.45 594.738 698.947 594.734 700.445C594.726 703.654 594.724 706.864 594.726 710.074C594.729 715.161 594.714 720.248 594.697 725.336C594.65 739.796 594.626 754.257 594.619 768.718C594.616 776.716 594.597 784.714 594.564 792.712C594.544 797.757 594.542 802.802 594.553 807.847C594.555 811.001 594.541 814.155 594.522 817.308C594.517 818.757 594.519 820.207 594.527 821.656C594.613 836.787 591.721 848.047 581.086 858.965C574.359 865.304 566.416 869.101 557.113 869.147C556.131 869.154 555.149 869.162 554.136 869.169C552.529 869.173 552.529 869.173 550.889 869.177C549.188 869.187 549.188 869.187 547.453 869.197C543.696 869.217 539.94 869.228 536.184 869.238C534.257 869.244 534.257 869.244 532.292 869.251C526.191 869.269 520.091 869.284 513.991 869.292C506.972 869.302 499.954 869.328 492.935 869.369C486.838 869.403 480.742 869.414 474.646 869.418C472.062 869.423 469.478 869.435 466.894 869.453C463.268 869.478 459.643 869.477 456.018 869.47C454.96 869.483 453.902 869.496 452.813 869.509C440.859 869.426 431.719 865.382 423.129 857.223C413.996 847.618 411.836 836.943 411.887 824.139C411.887 823.163 411.886 822.187 411.886 821.181C411.887 817.967 411.895 814.753 411.903 811.539C411.904 809.306 411.906 807.072 411.907 804.839C411.911 798.97 411.92 793.101 411.932 787.232C411.942 781.239 411.946 775.247 411.951 769.254C411.962 757.503 411.979 745.751 412 734C392.155 734.037 372.31 734.097 352.465 734.184C343.25 734.224 334.036 734.256 324.821 734.271C316.79 734.284 308.758 734.311 300.727 734.355C296.474 734.377 292.222 734.393 287.97 734.392C283.966 734.391 279.962 734.409 275.958 734.441C274.49 734.45 273.022 734.451 271.554 734.446C269.546 734.439 267.538 734.459 265.53 734.481C264.407 734.485 263.285 734.488 262.128 734.492C256.333 735.433 252.652 739.058 248.971 743.4C243.678 749.443 238.033 755.081 232.336 760.739C230.415 762.647 228.498 764.558 226.582 766.47C222.516 770.524 218.446 774.575 214.375 778.625C209.645 783.331 204.917 788.039 200.193 792.752C198.316 794.621 196.437 796.488 194.558 798.355C189.295 803.595 184.085 808.821 179.281 814.493C177.636 816.428 175.876 818.223 174.063 820C173.183 820.866 173.183 820.866 172.285 821.75C171.861 822.162 171.437 822.575 171 823C172.438 826.834 174.199 830.416 176.098 834.035C179.619 841.703 179.155 852.403 177.129 860.469C172.859 871.332 165.971 879.819 155.61 885.254C145.658 889.53 133.374 889.631 123.176 885.98C113.068 881.426 105.323 873.902 100.988 863.594C100.242 861.41 99.5887 859.231 99.0002 857C98.7733 856.175 98.5464 855.35 98.3127 854.5C97.0012 844.008 98.8052 833.767 105.25 825.125C113.407 815.646 122.284 809.154 135 808C140.674 808.066 146.019 808.608 151.438 810.312C154.943 811.378 154.943 811.378 157.563 809.625C159.392 807.655 161.134 805.666 162.873 803.619C167.573 798.242 172.647 793.241 177.712 788.213C179.507 786.431 181.298 784.647 183.088 782.861C187.532 778.43 191.982 774.005 196.432 769.579C200.203 765.827 203.972 762.074 207.739 758.318C209.491 756.572 211.246 754.829 213.001 753.087C218.037 748.074 222.987 743.039 227.603 737.631C230.907 733.774 234.548 730.226 238.125 726.625C239.303 725.417 239.303 725.417 240.504 724.184C241.269 723.414 242.033 722.644 242.821 721.852C243.504 721.159 244.187 720.466 244.891 719.752C249.194 716.177 253.194 715.751 258.676 715.759C259.662 715.757 259.662 715.757 260.669 715.754C262.864 715.751 265.06 715.762 267.255 715.773C268.832 715.774 270.409 715.773 271.987 715.772C276.263 715.771 280.539 715.783 284.816 715.797C289.287 715.81 293.758 715.811 298.229 715.813C306.693 715.819 315.157 715.836 323.621 715.856C333.259 715.878 342.896 715.889 352.533 715.899C372.355 715.92 392.178 715.957 412 716C412 698.84 412 681.68 412 664C247.165 664.495 247.165 664.495 79.0002 665C76.6902 669.62 74.3802 674.24 72.0002 679C64.1665 688.792 54.6243 693.705 42.1838 695.379C31.1123 695.878 21.0781 692.052 12.4455 685.27C4.0362 677.465 0.0306513 668.819 -0.40044 657.508C-0.585651 645.537 1.71141 636.566 9.67207 627.293C18.1382 618.955 28.1735 615.053 39.9377 614.562C52.5712 614.939 61.6636 620.298 70.1877 629.188C74.761 634.069 75.9464 638.282 79.0002 645C188.89 645.33 298.78 645.66 412 646C412 628.84 412 611.68 412 594C407.755 594.016 403.51 594.031 399.136 594.048C385.126 594.097 371.117 594.131 357.107 594.155C348.611 594.171 340.115 594.192 331.619 594.226C324.214 594.256 316.809 594.276 309.404 594.282C305.483 594.286 301.562 594.295 297.641 594.317C293.95 594.338 290.259 594.344 286.568 594.339C284.569 594.341 282.57 594.357 280.57 594.373C278.78 594.367 278.78 594.367 276.954 594.361C275.919 594.364 274.884 594.366 273.817 594.369C268.994 593.737 265.82 591.075 262.477 587.707C261.54 586.768 261.54 586.768 260.584 585.81C259.938 585.151 259.291 584.492 258.625 583.812C257.951 583.132 257.277 582.451 256.582 581.75C252.887 577.997 249.328 574.182 245.934 570.152C242.492 566.321 238.775 562.756 235.115 559.135C231.543 555.585 228.154 551.968 224.903 548.121C222.219 545.129 219.358 542.326 216.5 539.5C213.072 536.11 209.678 532.748 206.563 529.062C202.687 524.487 198.376 520.352 194.118 516.137C190.523 512.566 187.109 508.926 183.836 505.055C180.846 501.709 177.62 498.6 174.428 495.448C170.416 491.466 166.625 487.34 163 483C161.407 483.433 161.407 483.433 159.781 483.875C158.354 484.25 156.927 484.625 155.5 485C154.804 485.191 154.108 485.382 153.391 485.578C142.423 488.422 131.701 486.886 121.75 481.375C112.676 475.481 106.459 467.134 103.75 456.687C101.716 445.871 102.889 435.423 108.285 425.68C115.153 415.923 124.252 409.35 136 407C148.573 406.114 158.834 408.359 169 416C178.025 424.403 182.8 433.965 183.313 446.312C183.111 454.55 180.526 462.613 177 470C177.569 470.557 178.137 471.114 178.723 471.687C182.335 475.257 185.906 478.809 189.188 482.687C192.592 486.666 196.281 490.32 200 494C204.21 498.166 208.273 502.353 212.098 506.879C214.782 509.871 217.643 512.674 220.5 515.5C223.929 518.89 227.323 522.252 230.438 525.937C233.746 529.843 237.365 533.403 241 537C245.21 541.166 249.273 545.353 253.098 549.879C256.318 553.469 259.79 556.811 263.221 560.199C266.877 563.826 270.349 567.539 273.633 571.512C275.714 573.777 277.388 574.935 280.462 575.262C281.94 575.27 281.94 575.27 283.448 575.278C284.58 575.29 285.711 575.301 286.877 575.312C288.119 575.314 289.362 575.317 290.642 575.319C291.949 575.329 293.256 575.339 294.603 575.349C298.19 575.377 301.776 575.392 305.363 575.405C309.111 575.42 312.858 575.447 316.606 575.473C323.703 575.52 330.8 575.556 337.898 575.589C345.977 575.628 354.057 575.677 362.137 575.727C378.758 575.831 395.379 575.92 412 576C411.984 574.958 411.969 573.915 411.953 572.842C411.897 568.9 411.864 564.958 411.835 561.016C411.82 559.324 411.8 557.632 411.774 555.94C411.421 532.621 416.176 511.881 432.61 494.359C440.082 486.984 448.866 481.203 457.442 475.203C461.97 472.031 466.459 468.805 470.938 465.562C471.683 465.024 472.428 464.485 473.195 463.929C475.464 462.287 477.732 460.644 480 459C489.498 452.117 499.015 445.266 508.608 438.517C516.792 432.752 524.894 426.874 533 421C542.498 414.117 552.015 407.266 561.608 400.517C569.024 395.293 576.371 389.976 583.716 384.654C587.559 381.871 591.404 379.091 595.25 376.312C596.001 375.77 596.751 375.228 597.525 374.669C602.627 370.984 607.745 367.321 612.875 363.676C616.55 361.058 620.183 358.387 623.803 355.694C643.904 340.788 663.578 333.341 686 349ZM653.84 375.621C653.042 376.171 652.244 376.722 651.422 377.289C647.786 379.858 644.162 382.442 640.563 385.062C638.982 386.208 637.401 387.354 635.82 388.5C634.622 389.37 634.622 389.37 633.4 390.258C623.108 397.73 612.794 405.165 602.392 412.483C594.977 417.707 587.629 423.024 580.284 428.346C576.441 431.129 572.596 433.909 568.75 436.687C567.997 437.231 567.245 437.775 566.469 438.336C561.432 441.973 556.381 445.591 551.321 449.197C546.594 452.567 541.89 455.97 537.188 459.375C531.319 463.622 525.426 467.832 519.5 472C510.609 478.254 501.802 484.621 493 491C490.732 492.644 488.464 494.287 486.195 495.929C484.697 497.013 483.2 498.099 481.704 499.186C477.952 501.906 474.177 504.575 470.336 507.168C457.789 515.675 448.917 523.976 445.45 539.457C444.809 544.504 444.856 549.501 444.86 554.583C444.857 555.757 444.854 556.931 444.851 558.14C444.844 561.389 444.841 564.638 444.84 567.887C444.838 571.394 444.831 574.901 444.824 578.408C444.81 586.071 444.804 593.734 444.8 601.397C444.797 606.182 444.793 610.966 444.789 615.751C444.776 628.999 444.766 642.246 444.763 655.494C444.762 656.341 444.762 657.189 444.762 658.062C444.762 658.911 444.762 659.76 444.761 660.635C444.761 662.356 444.76 664.077 444.76 665.798C444.76 666.651 444.76 667.505 444.759 668.384C444.755 682.229 444.738 696.073 444.715 709.917C444.691 724.132 444.678 738.346 444.677 752.561C444.676 760.542 444.671 768.523 444.652 776.504C444.637 783.296 444.632 790.088 444.64 796.88C444.644 800.346 444.643 803.812 444.629 807.278C444.616 811.033 444.622 814.788 444.633 818.543C444.625 819.642 444.617 820.74 444.608 821.871C444.563 828.961 444.563 828.961 448 835C450.319 836.159 451.657 836.131 454.238 836.14C455.127 836.146 456.016 836.152 456.931 836.158C457.909 836.159 458.887 836.16 459.894 836.161C461.436 836.169 461.436 836.169 463.009 836.176C466.42 836.191 469.831 836.198 473.242 836.203C475.606 836.209 477.971 836.215 480.335 836.22C485.296 836.231 490.258 836.237 495.219 836.24C501.584 836.246 507.949 836.27 514.313 836.298C519.198 836.317 524.083 836.322 528.967 836.324C531.314 836.327 533.661 836.335 536.008 836.348C539.288 836.365 542.567 836.363 545.847 836.356C546.821 836.366 547.795 836.375 548.798 836.384C549.692 836.379 550.587 836.373 551.508 836.367C552.284 836.369 553.059 836.37 553.858 836.372C556.608 835.894 557.974 834.893 560 833C561.083 829.751 561.13 827.388 561.138 823.97C561.144 822.708 561.149 821.447 561.155 820.147C561.156 818.746 561.157 817.345 561.158 815.944C561.163 814.471 561.168 812.997 561.173 811.523C561.185 808.346 561.193 805.169 561.199 801.992C561.21 796.955 561.23 791.918 561.253 786.881C561.314 772.557 561.368 758.233 561.402 743.908C561.42 736 561.449 728.091 561.49 720.182C561.511 716.003 561.526 711.824 561.528 707.644C561.531 703.701 561.547 699.758 561.573 695.815C561.58 694.379 561.582 692.944 561.579 691.509C561.526 665.498 569.873 641.656 587 622C587.791 620.995 587.791 620.995 588.598 619.969C602.356 602.932 625.456 591.583 647 589C676.508 587.585 703.29 593.361 725.951 613.166C742.815 628.578 753.774 649.374 757 672C757.091 674.212 757.133 676.427 757.138 678.641C757.141 679.283 757.144 679.926 757.147 680.587C757.155 682.724 757.156 684.861 757.158 686.998C757.163 688.536 757.168 690.074 757.173 691.612C757.185 694.917 757.193 698.222 757.199 701.527C757.21 706.754 757.23 711.982 757.253 717.21C757.314 732.073 757.368 746.936 757.402 761.799C757.42 770.013 757.449 778.227 757.49 786.441C757.511 790.785 757.526 795.129 757.528 799.473C757.531 803.558 757.546 807.642 757.573 811.726C757.58 813.223 757.582 814.72 757.579 816.218C757.575 818.265 757.589 820.311 757.608 822.359C757.612 823.503 757.615 824.647 757.618 825.827C758.055 829.457 759.116 831.883 761 835C763.313 836.157 764.656 836.135 767.231 836.154C768.562 836.167 768.562 836.167 769.92 836.18C770.897 836.184 771.873 836.188 772.878 836.193C773.904 836.201 774.931 836.209 775.988 836.218C779.394 836.243 782.801 836.259 786.207 836.273C787.369 836.279 788.53 836.284 789.727 836.29C795.873 836.316 802.018 836.336 808.164 836.35C814.52 836.367 820.876 836.412 827.231 836.462C832.112 836.496 836.992 836.508 841.872 836.513C844.216 836.52 846.559 836.535 848.902 836.559C852.18 836.591 855.456 836.591 858.734 836.583C860.189 836.608 860.189 836.608 861.673 836.633C863.017 836.621 863.017 836.621 864.388 836.608C865.163 836.611 865.937 836.615 866.735 836.618C870.467 835.6 871.764 834.161 874 831C874.739 827.169 874.666 823.392 874.622 819.501C874.628 818.325 874.634 817.148 874.641 815.936C874.654 812.673 874.644 809.411 874.625 806.148C874.609 802.628 874.622 799.108 874.632 795.587C874.647 788.691 874.634 781.794 874.613 774.898C874.589 766.862 874.591 758.826 874.593 750.789C874.597 736.444 874.576 722.098 874.542 707.753C874.509 693.845 874.495 679.937 874.501 666.029C874.508 650.88 874.505 635.731 874.486 620.582C874.485 619.78 874.484 618.978 874.483 618.151C874.481 616.54 874.478 614.929 874.476 613.318C874.469 607.723 874.469 602.127 874.47 596.532C874.472 589.704 874.462 582.876 874.438 576.048C874.426 572.567 874.419 569.086 874.425 565.605C874.429 561.824 874.414 558.042 874.395 554.261C874.403 552.627 874.403 552.627 874.411 550.961C874.301 538.494 871.031 526.583 862.477 517.246C857.211 512.47 851.206 508.624 845.347 504.621C841.457 501.934 837.637 499.154 833.813 496.375C832.299 495.278 830.784 494.182 829.27 493.086C828.546 492.562 827.822 492.039 827.077 491.499C824.06 489.321 821.031 487.159 818 485C812.712 481.232 807.447 477.433 802.188 473.625C796.319 469.378 790.426 465.168 784.5 461C776.372 455.282 768.314 449.472 760.266 443.641C756.514 440.924 752.757 438.212 749 435.5C744.486 432.241 739.973 428.981 735.465 425.715C728.173 420.434 720.864 415.18 713.5 410C707.66 405.892 701.849 401.746 696.063 397.562C695.324 397.028 694.584 396.494 693.823 395.943C689.926 393.123 686.033 390.297 682.145 387.465C681.346 386.885 680.547 386.305 679.725 385.707C678.211 384.607 676.698 383.505 675.188 382.401C665.143 373.767 665.143 373.767 653.84 375.621ZM124.375 434.988C121.098 439.782 120.429 444.287 121 450C122.875 457.061 125.647 462.191 132 466C137.906 468.937 143.62 469.977 150 468C157.148 464.455 161.353 460.156 164.313 452.687C165.491 446.369 165.048 441.284 161.75 435.687C157.667 429.825 152.831 426.822 146 425C136.809 423.83 129.964 427.99 124.375 434.988ZM1158.16 434.121C1154.42 440.192 1154.39 446.042 1155 453C1156.08 456.42 1156.08 456.42 1158 459C1158.84 460.299 1158.84 460.299 1159.69 461.625C1164.07 466.126 1169.66 468.602 1175.93 469.094C1182.35 468.803 1187.85 466.162 1192.49 461.797C1196.09 457.508 1198.17 452.544 1198.44 446.937C1197.61 439.524 1195.5 434.587 1189.96 429.477C1179.61 421.673 1166.06 424.217 1158.16 434.121ZM23.0002 640C18.6489 645.649 17.1311 650.876 17.4494 657.996C18.6402 664.49 21.9717 669.274 26.9377 673.5C33.5009 676.715 38.9096 677.713 46.0002 676C52.6427 673.511 57.3505 668.449 60.3752 662.125C61.6989 655.506 61.788 649.917 58.3947 643.922C54.161 638.087 49.2083 634.201 42.0002 633C34.8792 632.242 27.9818 634.884 23.0002 640ZM1263.54 640.203C1259.5 644.914 1257.24 650.728 1257.62 656.961C1258.84 663.532 1261.7 668.699 1267.02 672.777C1272.36 676.068 1277.79 677.754 1284.03 676.562C1290.54 674.706 1294.97 671.937 1298.8 666.266C1301.87 660.46 1302.6 655.111 1300.94 648.75C1298.65 642.365 1295.2 637.958 1289.02 634.758C1279.43 631.153 1270.92 633.386 1263.54 640.203ZM121.625 834.5C116.588 840.691 116.203 846.144 117 854C118.732 860.244 122.684 864.456 128 868C132.818 870.304 137.748 870.824 143 870C150.632 867.288 154.91 863.882 158.75 856.75C160.944 850.169 160.836 845.193 158 838.812C154.816 832.972 150.316 829.105 144 827C134.697 826.083 127.964 827.397 121.625 834.5ZM1163.63 834.875C1159.85 840.427 1158.42 845.247 1159 852C1160.56 857.972 1162.86 862.945 1168.16 866.414C1173.81 869.542 1178.57 871.082 1185 870C1191.79 867.894 1197 864.06 1200.88 858.125C1203.22 851.614 1203.59 846.693 1201.14 840.242C1198.55 835.163 1194.85 831.38 1190.31 828C1180.05 824.902 1170.41 826.356 1163.63 834.875Z"
            fill="#4E4187" />
        <path
            d="M661.567 0.0546802C672.877 4.44826 681.981 21.6622 687 32C693.627 47.8043 694.432 63.8931 688 80C681.937 93.5732 672.81 104.895 662 115C648.074 108.897 638.682 90.3804 633 77C627.704 62.5817 628.647 47.0501 634.846 33.0962C638.876 24.5464 643.754 17.1146 650 9.99999C650.768 9.05382 651.537 8.10765 652.328 7.13281C653.107 6.2021 653.886 5.2714 654.688 4.31249C655.745 3.03825 655.745 3.03825 656.824 1.73827C659 -7.27177e-06 659 -7.29971e-06 661.567 0.0546802Z"
            fill="#4E4187" />
        <path
            d="M319 257C319.767 257.574 320.534 258.147 321.324 258.738C334.518 269.491 344.04 286.633 348 303C329.832 311.692 307.565 315.909 287.812 310.438C268.226 303.041 255.378 288.175 246.864 269.489C244.783 264.741 242.801 260.164 242 255C266.874 244.779 295.996 239.43 319 257Z"
            fill="#4E4187" />
        <path
            d="M412 66C430.539 66.9932 450.9 75.8574 464 89C475.391 101.996 479.4 116.669 479.313 133.625C479.311 134.666 479.31 135.707 479.309 136.779C479.202 145.465 478.083 153.57 476 162C471.359 163.442 467.897 162.292 463.313 161.062C462.475 160.838 461.637 160.613 460.774 160.382C447.908 156.743 435.741 151.343 426 142C425.211 141.251 424.422 140.502 423.609 139.73C410.901 126.707 407.546 109.846 407.638 92.2263C407.85 83.9715 408.255 73.4898 412 66Z"
            fill="#4E4187" />
        <path
            d="M1077 255C1073.74 273.981 1060.66 292.284 1045.32 303.539C1029.31 313.632 1010.47 314.378 992.329 310.403C984.837 308.594 977.967 306.326 971 303C974.067 289.787 981.139 277.201 990 267C990.467 266.392 990.933 265.783 991.414 265.156C1012.47 238.341 1049.34 243.636 1077 255Z"
            fill="#4E4187" />
        <path
            d="M907 66C913.802 83.4901 913.281 106.51 906.187 123.813C897.205 142.116 881.744 152.252 863 159C860.105 159.927 857.195 160.745 854.25 161.5C853.249 161.759 853.249 161.759 852.228 162.022C848.859 162.814 846.281 163.26 843 162C837.92 139.201 837.281 115.522 850 95C860.847 79.4107 887.545 64.7721 907 66Z"
            fill="#4E4187" />
        <path
            d="M786 253C788.806 265.501 790.159 279.614 783.746 291.281C776.284 301.855 765.584 308.286 753 311C749.563 311.125 749.563 311.125 747 311C743.503 298.761 743.295 285.109 749.219 273.641C756.036 262.355 767.138 256.976 779.563 253.688C783 253 783 253 786 253Z"
            fill="#4E4187" />
        <path
            d="M660 223C668.089 226.375 673.59 234.982 677.07 242.699C681.125 252.734 681.171 262.002 677 272C673.136 279.892 668.587 286.183 662 292C651.946 287.666 647.035 276.468 643.152 266.914C640.345 258.103 642.171 248.977 646 240.812C649.483 234.352 653.788 229.134 659 224C659.33 223.67 659.66 223.34 660 223Z"
            fill="#4E4187" />
        <path
            d="M487.875 343.629C499.278 350.987 506.463 361.958 510 375C497.302 380.149 483.525 383.658 470.25 378.375C459.08 372.76 451.648 362.353 447 351C446.623 349.343 446.277 347.677 446 346C447.749 345.352 449.499 344.706 451.25 344.063C452.225 343.703 453.199 343.343 454.203 342.973C464.169 339.507 478.301 338.825 487.875 343.629Z"
            fill="#4E4187" />
        <path
            d="M848.063 340.625C848.896 340.624 849.729 340.624 850.588 340.623C858.583 340.764 865.793 342.396 873 346C870.238 358.127 863.5 369.248 853.066 376.309C842.823 381.935 831.39 381.917 820.281 379.035C817.163 378.083 814.075 377.082 811 376C809.897 372.648 809.949 371.142 811.152 367.766C816.975 356.298 823.391 346.97 835.676 341.895C839.87 340.766 843.736 340.618 848.063 340.625Z"
            fill="#4E4187" />
        <path
            d="M534 253C544.778 253.325 557.211 259.086 565.188 266.312C572.195 274.313 574.179 284.017 574.188 294.312C574.2 295.034 574.212 295.755 574.225 296.498C574.239 301.644 573.415 306.051 572 311C559.628 310.699 549.244 305.839 540.32 297.414C532.593 289.226 530.746 278.861 530.836 267.965C531.527 255.473 531.527 255.473 534 253Z"
            fill="#4E4187" />
    </g>
    <defs>
        <clipPath id="clip0_272_364">
            <rect width="1320" height="888" fill="#4E4187" />
        </clipPath>
    </defs>
</svg>